<?xml version="1.0" standalone="no"?><!DOCTYPE svg PUBLIC "-//W3C//DTD SVG 1.1//EN" "http://www.w3.org/Graphics/SVG/1.1/DTD/svg11.dtd"><svg t="1711087750147" class="icon" viewBox="0 0 1024 1024" version="1.1" xmlns="http://www.w3.org/2000/svg" p-id="16412" xmlns:xlink="http://www.w3.org/1999/xlink" width="32" height="32"><path d="M248.704 731.434667c24.234667 0 43.861333 19.626667 43.861333 43.861333v76.8c0 24.277333-19.626667 43.904-43.861333 43.904h-76.8C147.626667 896 128 876.373333 128 852.096v-76.8c0-24.234667 19.626667-43.861333 43.904-43.861333h76.8z m301.696 0c24.234667 0 43.904 19.626667 43.904 43.861333v76.8c0 24.277333-19.626667 43.904-43.904 43.904h-76.8c-24.234667 0-43.904-19.626667-43.904-43.904v-76.8c0-24.234667 19.626667-43.861333 43.904-43.861333h76.8z m301.696 0c24.277333 0 43.904 19.626667 43.904 43.861333v76.8C896 876.373333 876.373333 896 852.096 896h-76.8c-24.234667 0-43.861333-19.626667-43.861333-43.904v-76.8c0-24.234667 19.626667-43.861333 43.861333-43.861333h76.8zM248.746667 429.653333c24.234667 0 43.861333 19.626667 43.861333 43.904v76.8c0 24.234667-19.626667 43.904-43.861333 43.904h-76.8C147.626667 594.304 128 574.677333 128 550.4v-76.8c0-24.234667 19.626667-43.904 43.904-43.904h76.8z m301.696 0c24.234667 0 43.904 19.626667 43.904 43.904v76.8c0 24.234667-19.626667 43.904-43.904 43.904h-76.8c-24.234667 0-43.904-19.626667-43.904-43.904v-76.8c0-24.234667 19.626667-43.904 43.904-43.904h76.8z m301.696 0c24.277333 0 43.904 19.626667 43.904 43.904v76.8c0 24.234667-19.626667 43.904-43.904 43.904h-76.8c-24.234667 0-43.861333-19.626667-43.861334-43.904v-76.8c0-24.234667 19.626667-43.904 43.861334-43.904h76.8zM248.746667 128c24.234667 0 43.861333 19.626667 43.861333 43.904v76.8c0 24.234667-19.626667 43.861333-43.861333 43.861333h-76.8C147.626667 292.565333 128 272.938667 128 248.746667v-76.8C128 147.626667 147.626667 128 171.904 128h76.8zM550.4 128c24.234667 0 43.904 19.626667 43.904 43.904v76.8c0 24.234667-19.626667 43.861333-43.904 43.861333h-76.8c-24.234667 0-43.904-19.626667-43.904-43.861333v-76.8c0-24.234667 19.626667-43.904 43.904-43.904h76.8z m301.696 0C876.373333 128 896 147.626667 896 171.904v76.8c0 24.234667-19.626667 43.861333-43.904 43.861333h-76.8c-24.234667 0-43.861333-19.626667-43.861333-43.861333v-76.8c0-24.234667 19.626667-43.904 43.861333-43.904h76.8z" p-id="16413" fill="#ffffff"></path></svg>